{"scene":0,"scenes":[{"nodes":[0]}],"asset":{"version":"2.0","generator":"https://github.com/mikedh/trimesh"},"accessors":[{"componentType":5125,"type":"SCALAR","bufferView":0,"count":192,"max":[33],"min":[0]},{"componentType":5126,"type":"VEC3","byteOffset":0,"bufferView":1,"count":34,"max":[0.11999999731779099,4.119999885559082,4.0],"min":[-0.11999999731779099,3.880000114440918,-4.0]},{"componentType":5126,"count":34,"type":"VEC3","byteOffset":0,"bufferView":2,"max":[0.7462026476860046,0.7462026476860046,1.0],"min":[-0.7462026476860046,-0.7462026476860046,-1.0]},{"componentType":5125,"type":"SCALAR","bufferView":3,"count":36,"max":[7],"min":[0]},{"componentType":5126,"type":"VEC3","byteOffset":0,"bufferView":4,"count":8,"max":[3.799999952316284,7.599999904632568,0.029999999329447746],"min":[0.0,5.599999904632568,-0.029999999329447746]},{"componentType":5126,"count":8,"type":"VEC3","byteOffset":0,"bufferView":5,"max":[0.5773502588272095,0.5773502588272095,0.5773502588272095],"min":[-0.5773502588272095,-0.5773502588272095,-0.5773502588272095]}],"meshes":[{"name":"flag_pole","extras":{"shape":"cylinder","height":8,"radius":0.12,"processed":true},"primitives":[{"attributes":{"POSITION":1,"NORMAL":2},"indices":0,"mode":4}]},{"name":"flag_cloth","extras":{"shape":"box","extents":[3.8,2.0,0.06]},"primitives":[{"attributes":{"POSITION":4,"NORMAL":5},"indices":3,"mode":4}]}],"nodes":[{"name":"world","children":[1,2]},{"name":"flag_pole","mesh":0},{"name":"flag_cloth","mesh":1}],"buffers":[{"uri":"gltf_buffer_0.bin","byteLength":768},{"uri":"gltf_buffer_1.bin","byteLength":408},{"uri":"gltf_buffer_2.bin","byteLength":408},{"uri":"gltf_buffer_3.bin","byteLength":144},{"uri":"gltf_buffer_4.bin","byteLength":96},{"uri":"gltf_buffer_5.bin","byteLength":96}],"bufferViews":[{"buffer":0,"byteOffset":0,"byteLength":768},{"buffer":1,"byteOffset":0,"byteLength":408},{"buffer":2,"byteOffset":0,"byteLength":408},{"buffer":3,"byteOffset":0,"byteLength":144},{"buffer":4,"byteOffset":0,"byteLength":96},{"buffer":5,"byteOffset":0,"byteLength":96}]}