{"scene":0,"scenes":[{"nodes":[0]}],"asset":{"version":"2.0","generator":"https://github.com/mikedh/trimesh"},"accessors":[{"componentType":5125,"type":"SCALAR","bufferView":0,"count":36,"max":[7],"min":[0]},{"componentType":5126,"type":"VEC3","byteOffset":0,"bufferView":1,"count":8,"max":[4.0,0.699999988079071,3.5],"min":[-4.0,0.0,-3.5]},{"componentType":5126,"count":8,"type":"VEC3","byteOffset":0,"bufferView":2,"max":[0.5773502588272095,0.5773502588272095,0.5773502588272095],"min":[-0.5773502588272095,-0.5773502588272095,-0.5773502588272095]},{"componentType":5125,"type":"SCALAR","bufferView":3,"count":288,"max":[49],"min":[0]},{"componentType":5126,"type":"VEC3","byteOffset":0,"bufferView":4,"count":50,"max":[-1.350000023841858,2.9000000953674316,1.399999976158142],"min":[-3.6500000953674316,0.6000000238418579,-1.399999976158142]},{"componentType":5126,"count":50,"type":"VEC3","byteOffset":0,"bufferView":5,"max":[0.7342544198036194,0.7342544198036194,1.0],"min":[-0.7342544198036194,-0.7342544198036194,-1.0]},{"componentType":5126,"type":"VEC3","byteOffset":0,"bufferView":6,"count":50,"max":[1.149999976158142,2.9000000953674316,1.399999976158142],"min":[-1.149999976158142,0.6000000238418579,-1.399999976158142]},{"componentType":5126,"count":50,"type":"VEC3","byteOffset":0,"bufferView":7,"max":[0.7342544198036194,0.7342544198036194,1.0],"min":[-0.7342544198036194,-0.7342544198036194,-1.0]},{"componentType":5126,"type":"VEC3","byteOffset":0,"bufferView":8,"count":50,"max":[3.6500000953674316,2.9000000953674316,1.399999976158142],"min":[1.350000023841858,0.6000000238418579,-1.399999976158142]},{"componentType":5126,"count":50,"type":"VEC3","byteOffset":0,"bufferView":9,"max":[0.7342544198036194,0.7342544198036194,1.0],"min":[-0.7342544198036194,-0.7342544198036194,-1.0]},{"componentType":5126,"type":"VEC3","byteOffset":0,"bufferView":10,"count":8,"max":[3.5,3.0999999046325684,-2.125],"min":[-3.5,0.30000001192092896,-2.4749999046325684]},{"componentType":5126,"type":"VEC3","byteOffset":0,"bufferView":11,"count":8,"max":[3.5,3.0999999046325684,2.4749999046325684],"min":[-3.5,0.30000001192092896,2.125]},{"componentType":5126,"type":"VEC3","byteOffset":0,"bufferView":12,"count":8,"max":[0.2750000059604645,4.275000095367432,3.0999999046325684],"min":[-0.2750000059604645,3.7249999046325684,-3.0999999046325684]},{"componentType":5126,"type":"VEC3","byteOffset":0,"bufferView":13,"count":8,"max":[1.2000000476837158,5.75,0.25],"min":[-1.2000000476837158,5.25,-0.25]},{"componentType":5125,"type":"SCALAR","bufferView":14,"count":192,"max":[33],"min":[0]},{"componentType":5126,"type":"VEC3","byteOffset":0,"bufferView":15,"count":34,"max":[3.0799999237060547,2.4800000190734863,2.0999999046325684],"min":[2.5199999809265137,1.9199999570846558,-2.0999999046325684]},{"componentType":5126,"count":34,"type":"VEC3","byteOffset":0,"bufferView":16,"max":[0.7462026476860046,0.7462026476860046,1.0],"min":[-0.7462026476860046,-0.7462026476860046,-1.0]}],"meshes":[{"name":"oil_base","extras":{"name":"oil_base"},"primitives":[{"attributes":{"POSITION":1,"NORMAL":2},"indices":0,"mode":4}]},{"name":"oil_barrel","extras":{"name":"oil_barrel"},"primitives":[{"attributes":{"POSITION":4,"NORMAL":5},"indices":3,"mode":4}]},{"name":"oil_barrel_1","extras":{"name":"oil_barrel"},"primitives":[{"attributes":{"POSITION":6,"NORMAL":7},"indices":3,"mode":4}]},{"name":"oil_barrel_2","extras":{"name":"oil_barrel"},"primitives":[{"attributes":{"POSITION":8,"NORMAL":9},"indices":3,"mode":4}]},{"name":"oil_beam","extras":{"name":"oil_beam"},"primitives":[{"attributes":{"POSITION":10,"NORMAL":2},"indices":0,"mode":4}]},{"name":"oil_beam_1","extras":{"name":"oil_beam"},"primitives":[{"attributes":{"POSITION":11,"NORMAL":2},"indices":0,"mode":4}]},{"name":"oil_pump_head","extras":{"name":"oil_pump_head"},"primitives":[{"attributes":{"POSITION":12,"NORMAL":2},"indices":0,"mode":4}]},{"name":"oil_pump_arm","extras":{"name":"oil_pump_arm"},"primitives":[{"attributes":{"POSITION":13,"NORMAL":2},"indices":0,"mode":4}]},{"name":"oil_pipe","extras":{"name":"oil_pipe"},"primitives":[{"attributes":{"POSITION":15,"NORMAL":16},"indices":14,"mode":4}]}],"nodes":[{"name":"world","children":[1,2,3,4,5,6,7,8,9]},{"name":"oil_base0","mesh":0},{"name":"oil_barrel1","mesh":1},{"name":"oil_barrel2","mesh":2},{"name":"oil_barrel3","mesh":3},{"name":"oil_beam4","mesh":4},{"name":"oil_beam5","mesh":5},{"name":"oil_pump_head6","mesh":6},{"name":"oil_pump_arm7","mesh":7},{"name":"oil_pipe8","mesh":8}],"buffers":[{"uri":"gltf_buffer_0.bin","byteLength":144},{"uri":"gltf_buffer_1.bin","byteLength":96},{"uri":"gltf_buffer_2.bin","byteLength":96},{"uri":"gltf_buffer_3.bin","byteLength":1152},{"uri":"gltf_buffer_4.bin","byteLength":600},{"uri":"gltf_buffer_5.bin","byteLength":600},{"uri":"gltf_buffer_6.bin","byteLength":600},{"uri":"gltf_buffer_7.bin","byteLength":600},{"uri":"gltf_buffer_8.bin","byteLength":600},{"uri":"gltf_buffer_9.bin","byteLength":600},{"uri":"gltf_buffer_10.bin","byteLength":96},{"uri":"gltf_buffer_11.bin","byteLength":96},{"uri":"gltf_buffer_12.bin","byteLength":96},{"uri":"gltf_buffer_13.bin","byteLength":96},{"uri":"gltf_buffer_14.bin","byteLength":768},{"uri":"gltf_buffer_15.bin","byteLength":408},{"uri":"gltf_buffer_16.bin","byteLength":408}],"bufferViews":[{"buffer":0,"byteOffset":0,"byteLength":144},{"buffer":1,"byteOffset":0,"byteLength":96},{"buffer":2,"byteOffset":0,"byteLength":96},{"buffer":3,"byteOffset":0,"byteLength":1152},{"buffer":4,"byteOffset":0,"byteLength":600},{"buffer":5,"byteOffset":0,"byteLength":600},{"buffer":6,"byteOffset":0,"byteLength":600},{"buffer":7,"byteOffset":0,"byteLength":600},{"buffer":8,"byteOffset":0,"byteLength":600},{"buffer":9,"byteOffset":0,"byteLength":600},{"buffer":10,"byteOffset":0,"byteLength":96},{"buffer":11,"byteOffset":0,"byteLength":96},{"buffer":12,"byteOffset":0,"byteLength":96},{"buffer":13,"byteOffset":0,"byteLength":96},{"buffer":14,"byteOffset":0,"byteLength":768},{"buffer":15,"byteOffset":0,"byteLength":408},{"buffer":16,"byteOffset":0,"byteLength":408}]}